<svg width="266" height="100" viewBox="0 0 266 100" fill="none" xmlns="http://www.w3.org/2000/svg">
<g clip-path="url(#clip0_1583_14810)">
<path d="M0 1.56445V74.7337H13.105V1.56445H0Z" fill="#7647EE"/>
<path d="M88.9045 43.7274C81.2661 42.1812 74.0546 41.2832 74.0546 35.7466C74.0546 31.9877 75.7067 29.9231 79.6233 29.1361C81.1531 28.8509 82.7079 28.7206 84.2639 28.7473C91.494 28.7473 94.4268 31.1452 94.4268 37.0798H105.11C105.11 26.0994 98.8262 21.3961 84.2639 21.3961C70.6391 21.3961 64.1052 25.2291 62.9636 33.969C60.3927 25.2846 54.4156 21.3961 44.3362 21.3961C36.9112 21.3961 31.6581 23.2478 28.3076 27.4603L26.7298 22.4423H17.2908V74.7061H29.1336V46.5142C29.1336 37.0798 31.7602 32.2655 37.6723 30.9878C38.8629 30.7415 40.0761 30.6205 41.292 30.6267C42.4281 30.6203 43.5613 30.7414 44.6703 30.9878C50.1741 32.2377 52.5037 36.9873 52.5037 46.5142V74.7338H64.4764V68.3826C67.4371 73.4839 73.6555 75.7893 83.8556 75.7893C99.8935 75.7893 106.808 70.7712 106.808 59.1241C106.78 48.0511 97.5546 45.4772 88.9045 43.7274ZM84.2639 68.4659C80.0132 68.4659 77.1638 67.6048 75.4839 65.6884C74.1753 64.1792 73.572 61.985 73.572 59.0871H64.4764V46.5142C64.4764 45.5883 64.4764 44.6625 64.4207 43.7366C70.9176 55.1708 94.8631 49.2917 94.8631 60.4851C94.8352 66.1605 91.791 68.4659 84.2547 68.4659H84.2639Z" fill="#7647EE"/>
<path d="M113.175 0C107.931 0 105.75 2.0924 105.75 6.99936C105.75 11.9063 107.949 14.1098 113.082 14.1098C118.317 14.1098 120.618 11.9156 120.618 6.99936C120.618 2.08314 118.307 0 113.175 0Z" fill="#7647EE"/>
<path d="M107.198 22.47V74.7337H119.143V22.47H107.198Z" fill="#7647EE"/>
<path d="M185.791 74.7338H197.532V46.5141C197.532 41.2738 198.321 37.4686 200.038 34.8948C201.987 31.9691 205.115 30.6267 209.681 30.6267C217.644 30.6267 220.893 35.2559 220.893 46.5141V74.7338H232.838V46.5141C232.838 39.6721 231.91 34.3578 229.961 30.4137H238.184V59.5777C238.184 64.5217 239.734 68.4751 242.685 71.1137C245.293 73.4376 248.978 74.7338 253.693 74.7338H265.637V65.5401H257.99C257.077 65.5504 256.167 65.4478 255.28 65.2346C251.79 64.3921 250.129 61.809 250.129 58.3279V30.4137H265.637V22.47H250.101V9.72117H238.184V22.47H229.831V30.1082C226.731 24.1458 221.181 21.4238 212.753 21.4238C209.518 21.3493 206.297 21.867 203.249 22.9514C201.095 23.737 199.148 25.0038 197.56 26.6548V1.54599H185.689V74.6875H185.791V74.7338Z" fill="#7647EE"/>
<path d="M127.95 14.1098C133.185 14.1098 135.496 11.9156 135.496 6.99936C135.496 2.08314 133.185 0 128.071 0C122.957 0 120.646 2.0924 120.646 6.99936C120.646 11.9063 122.818 14.1098 127.95 14.1098Z" fill="#7647EE"/>
<path d="M134.03 26.8122V22.47H122.076V74.7337H134.03V70.2527C130.522 65.2068 128.823 58.0038 128.823 48.4954C128.823 38.7278 130.484 31.784 134.03 26.8122Z" fill="#7647EE"/>
<path d="M183.694 22.47H174.264L173.577 25.1271L172.695 28.5342C168.983 23.618 163.154 21.4238 154.876 21.4238C142.448 21.4238 135.645 26.3955 133.297 37.7649L133.241 38.0334C133.167 38.4346 133.093 38.8419 133.018 39.2555C133.018 39.4036 133.018 39.5425 132.953 39.6906C132.898 40.061 132.842 40.4406 132.796 40.8294C132.796 40.9961 132.749 41.172 132.731 41.3479C132.731 41.7182 132.647 42.0978 132.61 42.4774C132.61 42.6626 132.61 42.8477 132.564 43.0422L132.48 44.2272C132.48 44.4124 132.48 44.5976 132.48 44.792C132.48 45.2364 132.48 45.7178 132.424 46.1437C132.424 46.2919 132.424 46.4493 132.424 46.6067C132.424 47.2239 132.424 47.8411 132.424 48.4583C132.424 49.1064 132.424 49.736 132.424 50.31C132.424 50.4674 132.424 50.6248 132.424 50.7729C132.424 51.2359 132.424 51.6988 132.48 52.1247C132.48 52.3191 132.48 52.5043 132.48 52.6894C132.48 53.0968 132.508 53.4949 132.564 53.8838C132.564 54.0689 132.564 54.2541 132.61 54.4393C132.61 54.8281 132.684 55.2077 132.731 55.5873C132.731 55.754 132.731 55.9299 132.796 56.0965C132.842 56.4854 132.898 56.865 132.953 57.2446C132.953 57.3835 133 57.5316 133.018 57.6797C133.093 58.0933 133.167 58.5006 133.241 58.9018L133.297 59.1796C135.645 70.5952 142.448 75.6966 154.876 75.6966C162.523 75.6966 168.083 73.8449 171.749 69.7434V71.41C171.749 83.5385 167.563 88.6584 157.391 88.6584C150.476 88.6584 147.126 86.1494 145.659 79.6685H134.448C135.561 86.316 138.281 90.8434 143.023 93.5561C144.734 94.5015 146.567 95.2057 148.472 95.6485C151.605 96.3516 154.811 96.681 158.022 96.6299C160.59 96.6517 163.155 96.4503 165.688 96.0281C166.152 95.9448 166.616 95.8522 167.043 95.7503C172.231 94.6023 176.111 92.2877 178.821 88.6954C182.134 84.2977 183.694 77.9649 183.694 69.4564V22.47ZM162.412 65.9845C159.588 66.5734 156.675 66.5892 153.845 66.0308C147.042 64.5772 144.193 59.1333 144.193 48.4398C144.193 38.1722 146.884 32.7005 153.131 31.0433C154.729 30.6379 156.373 30.4449 158.022 30.4692C159.498 30.4557 160.971 30.611 162.412 30.9322C168.974 32.4598 171.749 37.9037 171.749 48.4398C171.749 58.9759 168.974 64.5032 162.412 66.0216V65.9845Z" fill="#7647EE"/>
<path d="M185.132 84.0845C184.586 85.6935 183.88 87.2442 183.025 88.7137H265.628V84.0845H185.132Z" fill="#7647EE"/>
<path d="M36.3822 93.9264C36.9347 94.003 37.4951 93.8579 37.9405 93.5229C38.3859 93.1879 38.68 92.6904 38.7582 92.1395H42.1459C41.6168 94.917 39.8998 96.1484 36.3822 96.1484C32.0015 96.1484 30.136 94.2967 30.136 89.8619C30.136 85.4271 31.9922 83.5847 36.3822 83.5847C40.7722 83.5847 42.6285 85.492 42.6285 89.9638V91.0285H33.7464C33.9413 93.0283 34.7766 93.9264 36.3822 93.9264ZM33.7185 89.0009H39.0738C39.0738 86.7511 38.2756 85.7975 36.4101 85.7975C34.7116 85.7975 33.8949 86.7789 33.7185 89.0009Z" fill="#7647EE"/>
<path d="M79.3911 95.9075H75.8086V83.8716H78.593L79.1498 85.2233C79.4963 84.6731 79.9903 84.2306 80.5759 83.9459C81.1615 83.6612 81.8152 83.5456 82.4632 83.6124C83.1441 83.5452 83.8303 83.667 84.4461 83.9644C85.0619 84.2617 85.5834 84.723 85.9529 85.2974C86.6769 84.1401 87.8927 83.6124 89.6654 83.6124C92.7932 83.6124 94.1204 85.353 94.1204 89.3989V95.8798H90.5564V89.3989C90.5564 87.1769 89.9996 86.2047 88.7002 86.2047C87.4008 86.2047 86.7604 87.1306 86.7604 89.3989V95.8798H83.1779V89.3989C83.1779 87.1583 82.621 86.2047 81.3216 86.2047C80.0222 86.2047 79.354 87.1306 79.354 89.3989L79.3911 95.9075Z" fill="#7647EE"/>
<path d="M95.884 95.9077V83.8718H99.4666V95.9077H95.884Z" fill="#7647EE"/>
<path d="M46.6286 83.8532L47.0648 84.779C47.5406 84.3425 48.1026 84.01 48.7147 83.8027C49.3268 83.5954 49.9756 83.518 50.6195 83.5755C53.9422 83.5755 55.3715 85.316 55.3715 89.3712V95.8521H51.7797V89.3157C51.7797 87.0751 51.1578 86.1215 49.6543 86.1215C48.1507 86.1215 47.4268 86.9918 47.4268 89.0194V95.8336H43.8442V83.8069H46.6286V83.8532Z" fill="#7647EE"/>
<path d="M60.6524 80.7331H57.0698V95.8984H60.6524V80.7331Z" fill="#7647EE"/>
<path d="M62.342 83.8257V90.3066C62.342 94.3618 63.7714 96.0931 67.094 96.0931H69.1173C72.4307 96.0931 73.86 94.3618 73.86 90.3066V83.8257H62.342ZM70.7694 87.2513V90.6862H68.9131V88.5753L66.7877 90.6862H65.4048V89.3622L67.5209 87.2513H65.4048V85.3996H70.7322L70.7694 87.2513Z" fill="#7647EE"/>
<path d="M5.66154 96.2133C3.8053 96.2133 2.49664 95.6578 1.7263 94.445L1.45715 95.9819H0V80.2426H1.80055V86.1402C2.57089 85.0199 3.82385 84.5107 5.64297 84.5107C9.01204 84.5107 10.4506 86.2513 10.4506 90.3342C10.4506 94.4172 9.03061 96.2133 5.66154 96.2133ZM8.66863 90.3898C8.66863 87.3623 7.62915 86.0661 5.25316 86.0661C2.87717 86.0661 1.80983 87.3623 1.80983 90.3898C1.80983 93.4173 2.84933 94.7135 5.25316 94.7135C7.65699 94.7135 8.66863 93.408 8.66863 90.3898Z" fill="#7647EE"/>
<path d="M15.7869 95.6948L10.8958 84.7606H12.6499L16.5573 93.5006L19.6108 84.7606H21.3371L17.142 96.417C16.2139 98.926 15.1187 100 13.4295 100H12.1951V98.676H13.3645C14.3948 98.676 15.1094 97.8242 15.7684 95.8337L15.7869 95.6948Z" fill="#7647EE"/>
</g>
<defs>
<clipPath id="clip0_1583_14810">
<rect width="265.637" height="100" fill="white"/>
</clipPath>
</defs>
</svg>
