<svg xmlns="http://www.w3.org/2000/svg" id="Layer_1" data-name="Layer 1" viewBox="915.17 1259.4 1004.31 448.78"><defs><style>.cls-1{fill:#7647ee;}</style></defs><rect class="cls-1" x="1834.35" y="1266.33" width="85.13" height="301.98"/><path class="cls-1" d="M1394.33,1319.5v-53.17H1309.2v119.3h0v8.62h0v19.27h0v39.93a96.46,96.46,0,0,1-2.55,23.63,38.31,38.31,0,0,1-8.39,16.45,34.56,34.56,0,0,1-15,9.56q-9.18,3.09-22.41,3.1t-22.41-3.1a34.65,34.65,0,0,1-15-9.56,38.3,38.3,0,0,1-8.38-16.45,95.94,95.94,0,0,1-2.56-23.63v-39.93h0v-19.27h0v-10.38h0V1266.33h-85.12v53.17h0v110.19q0,37.61,7.06,65.2t23.13,45.41q16.06,17.84,41.4,26.38t61.85,8.54q36.52,0,61.85-8.54t41.4-26.38q16.06-17.82,23.13-45.41t7.06-65.2V1319.5Z"/><path class="cls-1" d="M1000.3,1502.16V1266.33H915.17v219.15q0,40.27,20.42,61.55t64.13,21.28h112.62v-66.15Z"/><path class="cls-1" d="M1767.92,1285q-25-25.57-69.31-25.6-21.87,0-36.82,5.76a81.38,81.38,0,0,0-25,14.66,67.31,67.31,0,0,0-15.53,19.56,93.24,93.24,0,0,0-7.77,19.85h-4.59a115.17,115.17,0,0,0-7.2-19.85,61.09,61.09,0,0,0-14.67-19.56q-9.78-8.91-24.73-14.66t-36.81-5.76q-48.32,0-73.92,31.36T1426,1388.27v180h85.13v-195q0-53.49,33.94-53.5,15.53,0,23,9.78t7.47,27V1428h71.33v-71.33q0-36.8,30.49-36.81t30.48,36.81v200.75h0v10.93h85.13v-208.8Q1792.94,1310.63,1767.92,1285Z"/><path class="cls-1" d="M1604.52,1677.77c6.89,0,10.28-2.66,11.85-8.94h16.92c-2.65,14-11.24,20.06-28.77,20.06-21.88,0-31.19-9.43-31.19-31.43s9.31-31.43,31.19-31.43,31.19,9.55,31.19,31.91v5.33h-44.36C1592.31,1673.3,1596.3,1677.77,1604.52,1677.77Zm-13.3-24.66h26.72c0-11.24-4-16-13.3-16C1596.18,1637.15,1592.07,1642,1591.22,1653.11Z"/><path class="cls-1" d="M1819.25,1687.68h-17.89v-60.44h14l2.78,6.77c3.27-5.56,8.7-8.1,16.56-8.1,8.34,0,14,2.66,17.41,8.46,3.63-5.8,9.67-8.46,18.5-8.46,15.59,0,22.24,8.71,22.24,29v32.63H1875v-32.63c0-11.13-2.78-16-9.19-16-6.77,0-9.67,4.83-9.67,16v32.63h-17.89v-32.63c0-11.25-2.78-16-9.19-16-6.77,0-9.79,4.83-9.79,16Z"/><path class="cls-1" d="M1901.58,1687.68v-60.44h17.9v60.44Z"/><path class="cls-1" d="M1655.67,1627.36l2.17,4.72c4-4.11,9.79-6,17.77-6,16.56,0,23.69,8.7,23.69,29v32.64h-17.89V1655c0-11.24-3.14-16-10.63-16-7.74,0-11.12,4.35-11.12,14.51v34.08h-17.9v-60.44h14Z"/><rect class="cls-1" x="1707.78" y="1611.76" width="17.89" height="75.92"/><path class="cls-1" d="M1734.13,1627.24v32.64c0,20.31,7.14,29,23.7,29H1768c16.56,0,23.7-8.7,23.7-29v-32.64Zm42.06,17.12v17.19h-9.37V1651l-10.57,10.57h-6.63v-6.63l10.57-10.56h-10.57V1635h26.57Z"/><path class="cls-1" d="M1451.12,1689.23c-9.42,0-15.81-2.8-19.63-8.86l-1.34,7.63h-7.29v-78.51h9V1639c3.81-5.6,10.09-8.18,19.18-8.18,16.82,0,24,8.75,24,29.16S1467.94,1689.23,1451.12,1689.23Zm15-29.16c0-15.14-5.16-21.65-17.05-21.65s-17.16,6.51-17.16,21.65,5.16,21.65,17.16,21.65S1466.15,1675.21,1466.15,1660.07Z"/><path class="cls-1" d="M1501.7,1686.65l-24.45-54.73H1486l19.51,43.74,15.26-43.74h8.63l-20.86,58.32c-4.48,12.56-10.09,17.94-18.73,17.94h-6.17v-6.61h5.84c5.15,0,8.74-4.27,12-14.25Z"/></svg>
