<svg width="177" height="52" viewBox="0 0 177 52" fill="none" xmlns="http://www.w3.org/2000/svg">
<g clip-path="url(#clip0_1534_10249)">
<path fill-rule="evenodd" clip-rule="evenodd" d="M170.283 52H7.11804C3.51954 52 0.588867 49.0693 0.588867 45.5V6.5C0.588867 2.91771 3.51954 0 7.11804 0H170.283C173.878 0 176.812 2.91771 176.812 6.5V45.5C176.812 49.0693 173.878 52 170.283 52Z" fill="black"/>
<path fill-rule="evenodd" clip-rule="evenodd" d="M170.283 1.04065C173.301 1.04065 175.771 3.49476 175.771 6.5V45.5C175.771 48.5052 173.317 50.9594 170.283 50.9594H7.11804C4.09984 50.9594 1.62952 48.5052 1.62952 45.5V6.5C1.62952 3.49476 4.08363 1.04065 7.11804 1.04065H170.283ZM170.283 0H7.11804C3.51954 0 0.588867 2.93067 0.588867 6.5V45.5C0.588867 49.0823 3.51954 52 7.11804 52H170.283C173.878 52 176.812 49.0823 176.812 45.5V6.5C176.812 2.93067 173.878 0 170.283 0Z" fill="#A6A6A6"/>
<path d="M93.4235 17.2015C92.2467 17.2015 91.2547 16.7897 90.4702 15.9793C89.6921 15.1915 89.2577 14.1055 89.2772 12.9967C89.2772 11.8134 89.6792 10.8117 90.4702 10.0174C91.2515 9.20695 92.2435 8.79523 93.4203 8.79523C94.5841 8.79523 95.5761 9.20695 96.3737 10.0174C97.1647 10.8376 97.5667 11.8394 97.5667 12.9967C97.5537 14.1833 97.1517 15.185 96.3737 15.976C95.5924 16.793 94.6003 17.2015 93.4235 17.2015ZM58.408 17.2015C57.2571 17.2015 56.2586 16.7962 55.4417 15.9955C54.6312 15.198 54.2195 14.1897 54.2195 13C54.2195 11.8102 54.6312 10.802 55.4417 10.0045C56.2424 9.20371 57.2409 8.79847 58.408 8.79847C58.9786 8.79847 59.5329 8.91194 60.0646 9.14211C60.5865 9.3658 61.0112 9.67054 61.3257 10.0434L61.4035 10.1374L60.5249 10.9997L60.4342 10.8927C59.9382 10.3027 59.2736 10.0142 58.395 10.0142C57.6105 10.0142 56.9265 10.293 56.3624 10.8441C55.795 11.3985 55.5065 12.1247 55.5065 13.0032C55.5065 13.8818 55.795 14.6079 56.3624 15.1623C56.9265 15.7134 57.6105 15.9922 58.395 15.9922C59.2314 15.9922 59.9349 15.7134 60.4828 15.1623C60.807 14.8381 61.008 14.3843 61.0793 13.8104H58.2621V12.598H62.2885L62.3047 12.7082C62.3339 12.9124 62.3631 13.1232 62.3631 13.3177C62.3631 14.4361 62.0259 15.3406 61.3581 16.0084C60.5995 16.7995 59.6075 17.2015 58.408 17.2015ZM104.965 17.0296H103.723L99.9203 10.9446L99.9527 12.0404V17.0264H98.711V8.97029H100.128L100.167 9.03189L103.742 14.7636L103.71 13.671V8.97029H104.965V17.0296ZM84.0934 17.0296H82.8356V10.1828H80.6538V8.97029H86.2719V10.1828H84.0902V17.0296H84.0934ZM79.6293 17.0296H78.3747V8.97029H79.6293V17.0296ZM72.5783 17.0296H71.3236V10.1828H69.1419V8.97029H74.76V10.1828H72.5783V17.0296ZM68.3476 17.0167H63.5366V8.97029H68.3476V10.1828H64.7945V12.3937H68.0007V13.5932H64.7945V15.8042H68.3476V17.0167ZM91.3909 15.1461C91.9517 15.7069 92.6325 15.989 93.4235 15.989C94.2373 15.989 94.9018 15.7134 95.4562 15.1461C96.0073 14.595 96.2861 13.872 96.2861 13C96.2861 12.1279 96.0073 11.4017 95.4594 10.8538C94.8986 10.293 94.2146 10.0109 93.4268 10.0109C92.6131 10.0109 91.9485 10.2865 91.3974 10.8538C90.8462 11.405 90.5674 12.1279 90.5674 13C90.5674 13.872 90.843 14.5982 91.3909 15.1461Z" fill="white"/>
<path fill-rule="evenodd" clip-rule="evenodd" d="M89.1607 28.2823C86.0971 28.2823 83.6138 30.6067 83.6138 33.813C83.6138 36.99 86.1133 39.3436 89.1607 39.3436C92.2243 39.3436 94.7076 37.003 94.7076 33.813C94.7076 30.6067 92.2243 28.2823 89.1607 28.2823ZM89.1607 37.1521C87.4847 37.1521 86.042 35.7646 86.042 33.8C86.042 31.8062 87.4879 30.4479 89.1607 30.4479C90.8368 30.4479 92.2794 31.8062 92.2794 33.8C92.2827 35.7776 90.8368 37.1521 89.1607 37.1521ZM77.0587 28.2823C73.9951 28.2823 71.5118 30.6067 71.5118 33.813C71.5118 36.99 74.0113 39.3436 77.0587 39.3436C80.1223 39.3436 82.6056 37.003 82.6056 33.813C82.6056 30.6067 80.1191 28.2823 77.0587 28.2823ZM77.0587 37.1521C75.3826 37.1521 73.94 35.7646 73.94 33.8C73.94 31.8062 75.3859 30.4479 77.0587 30.4479C78.7348 30.4479 80.1774 31.8062 80.1774 33.8C80.1774 35.7776 78.7348 37.1521 77.0587 37.1521ZM62.6582 29.9713V32.312H68.2764C68.1046 33.6249 67.6702 34.5943 67.0056 35.2589C66.1821 36.0823 64.9113 36.9771 62.6712 36.9771C59.2185 36.9771 56.518 34.189 56.518 30.7364C56.518 27.2838 59.2185 24.4958 62.6712 24.4958C64.5353 24.4958 65.8936 25.2317 66.9018 26.1718L68.5617 24.512C67.1612 23.1698 65.2971 22.1422 62.6841 22.1422C57.9477 22.1422 53.9731 26 53.9731 30.7234C53.9731 35.4599 57.9445 39.3047 62.6841 39.3047C65.242 39.3047 67.1612 38.4683 68.6784 36.8928C70.2248 35.3464 70.7143 33.1646 70.7143 31.4042C70.7143 30.8564 70.6722 30.3636 70.5846 29.9454H62.655C62.6582 29.9422 62.6582 29.9713 62.6582 29.9713ZM121.56 31.7933C121.097 30.5516 119.696 28.2693 116.824 28.2693C113.977 28.2693 111.611 30.5095 111.611 33.8C111.611 36.9057 113.952 39.3307 117.099 39.3307C119.628 39.3307 121.1 37.7843 121.706 36.8766L119.829 35.6187C119.207 36.5426 118.341 37.1489 117.112 37.1489C115.871 37.1489 115.002 36.5848 114.425 35.4728L121.82 32.4092C121.82 32.4125 121.56 31.7933 121.56 31.7933ZM114.02 33.6412C113.961 31.5047 115.679 30.4187 116.908 30.4187C117.877 30.4187 118.685 30.8953 118.96 31.589L114.02 33.6412ZM108.012 39H110.441V22.7516H108.012V39ZM104.025 29.511H103.937C103.389 28.8594 102.349 28.2693 101.02 28.2693C98.2607 28.2693 95.7191 30.6975 95.7191 33.8162C95.7191 36.922 98.2478 39.321 101.02 39.321C102.333 39.321 103.389 38.7277 103.937 38.0631H104.025V38.8574C104.025 40.9678 102.897 42.1057 101.078 42.1057C99.5899 42.1057 98.666 41.0359 98.2899 40.1412L96.1794 41.0229C96.7857 42.4818 98.4034 44.2875 101.075 44.2875C103.921 44.2875 106.333 42.6115 106.333 38.5234V28.6H104.038V29.511C104.041 29.511 104.025 29.511 104.025 29.511ZM101.237 37.1521C99.5607 37.1521 98.1602 35.7516 98.1602 33.8162C98.1602 31.8646 99.5607 30.4511 101.237 30.4511C102.897 30.4511 104.184 31.8808 104.184 33.8162C104.2 35.7516 102.9 37.1521 101.237 37.1521ZM132.93 22.7516H127.123V39H129.552V32.8469H132.933C135.62 32.8469 138.263 30.8985 138.263 27.8057C138.263 24.713 135.63 22.7516 132.93 22.7516ZM133.001 30.5776H129.548V25.0015H133.001C134.82 25.0015 135.847 26.5025 135.847 27.7895C135.847 29.0636 134.807 30.5776 133.001 30.5776ZM147.995 28.2531C146.231 28.2531 144.412 29.0344 143.66 30.7364L145.813 31.6312C146.276 30.7364 147.126 30.4317 148.024 30.4317C149.282 30.4317 150.553 31.1838 150.582 32.5259V32.6978C150.147 32.4514 149.194 32.0753 148.053 32.0753C145.729 32.0753 143.372 33.3461 143.372 35.7289C143.372 37.9107 145.278 39.3112 147.401 39.3112C149.032 39.3112 149.93 38.5753 150.491 37.7227H150.578V38.9806H152.919V32.7561C152.919 29.8579 150.767 28.2531 147.995 28.2531ZM147.69 37.1521C146.896 37.1521 145.784 36.7631 145.784 35.7646C145.784 34.5067 147.171 34.0302 148.355 34.0302C149.424 34.0302 149.93 34.2604 150.566 34.5781C150.39 36.0369 149.159 37.1392 147.69 37.1521ZM161.458 28.6L158.67 35.6479H158.583L155.694 28.6H153.081L157.416 38.4521L154.945 43.9277H157.474L164.143 28.6H161.458ZM139.601 39H142.03V22.7516H139.601V39Z" fill="white"/>
<path fill-rule="evenodd" clip-rule="evenodd" d="M14.1531 9.79383C13.777 10.1991 13.5598 10.8183 13.5598 11.6287V40.3746C13.5598 41.1851 13.777 41.8043 14.166 42.1933L14.2665 42.2809L30.3723 26.1751V25.8153L14.2536 9.7063L14.1531 9.79383Z" fill="url(#paint0_linear_1534_10249)"/>
<path fill-rule="evenodd" clip-rule="evenodd" d="M35.731 31.5598L30.3591 26.188V25.8119L35.731 20.4401L35.8477 20.5114L42.2018 24.1229C44.0205 25.1474 44.0205 26.8396 42.2018 27.877L35.8477 31.4885L35.731 31.5598Z" fill="url(#paint1_linear_1534_10249)"/>
<path fill-rule="evenodd" clip-rule="evenodd" d="M35.8476 31.4885L30.3591 26L14.1528 42.2062C14.7461 42.8416 15.7414 42.913 16.8533 42.2938L35.8476 31.4885Z" fill="url(#paint2_linear_1534_10249)"/>
<path fill-rule="evenodd" clip-rule="evenodd" d="M35.8476 20.5115L16.8533 9.72246C15.7414 9.08705 14.7429 9.17458 14.1528 9.80999L30.3591 26L35.8476 20.5115Z" fill="url(#paint3_linear_1534_10249)"/>
<path opacity="0.2" fill-rule="evenodd" clip-rule="evenodd" d="M35.7309 31.3716L16.8663 42.0893C15.8127 42.6956 14.8725 42.6534 14.2663 42.1023L14.1658 42.2028L14.2663 42.2903C14.8725 42.8382 15.8127 42.8836 16.8663 42.2773L35.8606 31.4883L35.7309 31.3716Z" fill="black"/>
<path opacity="0.12" fill-rule="evenodd" clip-rule="evenodd" d="M42.2019 27.689L35.7148 31.3718L35.8316 31.4885L42.1857 27.8771C43.0966 27.3584 43.544 26.6776 43.544 26C43.4889 26.6224 43.0253 27.2125 42.2019 27.689Z" fill="black"/>
<path opacity="0.25" fill-rule="evenodd" clip-rule="evenodd" d="M16.8536 9.91036L42.202 24.3109C43.0254 24.7744 43.489 25.3807 43.5603 25.9999C43.5603 25.3223 43.1129 24.6415 42.202 24.1228L16.8536 9.72233C15.0349 8.68168 13.5598 9.55051 13.5598 11.6286V11.8166C13.5598 9.73529 15.0349 8.88268 16.8536 9.91036Z" fill="white"/>
</g>
<defs>
<linearGradient id="paint0_linear_1534_10249" x1="28.9276" y1="11.3186" x2="3.12902" y2="18.1927" gradientUnits="userSpaceOnUse">
<stop stop-color="#00A0FF"/>
<stop offset="0.00657" stop-color="#00A1FF"/>
<stop offset="0.2601" stop-color="#00BEFF"/>
<stop offset="0.5122" stop-color="#00D2FF"/>
<stop offset="0.7604" stop-color="#00DFFF"/>
<stop offset="1" stop-color="#00E3FF"/>
</linearGradient>
<linearGradient id="paint1_linear_1534_10249" x1="44.5736" y1="26" x2="13.1175" y2="26" gradientUnits="userSpaceOnUse">
<stop stop-color="#FFE000"/>
<stop offset="0.4087" stop-color="#FFBD00"/>
<stop offset="0.7754" stop-color="#FFA500"/>
<stop offset="1" stop-color="#FF9C00"/>
</linearGradient>
<linearGradient id="paint2_linear_1534_10249" x1="32.8631" y1="28.9865" x2="12.1521" y2="63.8449" gradientUnits="userSpaceOnUse">
<stop stop-color="#FF3A44"/>
<stop offset="1" stop-color="#C31162"/>
</linearGradient>
<linearGradient id="paint3_linear_1534_10249" x1="10.0719" y1="0.232446" x2="19.3119" y2="15.8007" gradientUnits="userSpaceOnUse">
<stop stop-color="#32A071"/>
<stop offset="0.0685" stop-color="#2DA771"/>
<stop offset="0.4762" stop-color="#15CF74"/>
<stop offset="0.8009" stop-color="#06E775"/>
<stop offset="1" stop-color="#00F076"/>
</linearGradient>
<clipPath id="clip0_1534_10249">
<rect width="176.223" height="52" fill="white" transform="translate(0.588867)"/>
</clipPath>
</defs>
</svg>
